<?xml version="1.0" encoding="UTF-8" standalone="no"?>
<!-- Generated by IcoMoon.io -->

<svg
   xmlns:dc="http://purl.org/dc/elements/1.1/"
   xmlns:cc="http://creativecommons.org/ns#"
   xmlns:rdf="http://www.w3.org/1999/02/22-rdf-syntax-ns#"
   xmlns:svg="http://www.w3.org/2000/svg"
   xmlns="http://www.w3.org/2000/svg"
   xmlns:sodipodi="http://sodipodi.sourceforge.net/DTD/sodipodi-0.dtd"
   xmlns:inkscape="http://www.inkscape.org/namespaces/inkscape"
   version="1.1"
   width="648.17584"
   height="648.47968"
   viewBox="0 0 648.17584 648.47968"
   id="svg3336"
   inkscape:version="0.91 r13725"
   sodipodi:docname="mail.svg">
  <metadata
     id="metadata3345">
    <rdf:RDF>
      <cc:Work
         rdf:about="">
        <dc:format>image/svg+xml</dc:format>
        <dc:type
           rdf:resource="http://purl.org/dc/dcmitype/StillImage" />
        <dc:title></dc:title>
      </cc:Work>
    </rdf:RDF>
  </metadata>
  <defs
     id="defs3343" />
  <sodipodi:namedview
     pagecolor="#ffffff"
     bordercolor="#666666"
     borderopacity="1"
     objecttolerance="10"
     gridtolerance="10"
     guidetolerance="10"
     inkscape:pageopacity="0"
     inkscape:pageshadow="2"
     inkscape:window-width="1044"
     inkscape:window-height="615"
     id="namedview3341"
     showgrid="false"
     fit-margin-top="100"
     fit-margin-left="55"
     fit-margin-right="55"
     fit-margin-bottom="100"
     inkscape:zoom="0.47753906"
     inkscape:cx="318.82732"
     inkscape:cy="229.72718"
     inkscape:window-x="10"
     inkscape:window-y="0"
     inkscape:window-maximized="0"
     inkscape:current-layer="svg3336" />
  <g
     id="icomoon-ignore"
     transform="translate(55,-428.29834)" />
  <path
     d="m 66.211822,100 515.751698,0 q 4.48463,0 5.60618,2.24258 1.12155,2.24257 -2.46647,5.83006 l -252.94266,254.2881 q -3.58801,3.58801 -8.07264,3.58801 -4.48462,0 -8.07263,-3.58801 L 63.072638,108.07264 q -3.588014,-3.58802 -2.466464,-5.83006 1.12155,-2.24205 5.606174,-2.24258 z m -3.139184,97.76879 118.398692,118.39869 q 3.58801,3.58802 3.58801,8.07264 0,4.48462 -3.58801,8.07264 L 63.072638,450.71145 q -3.588014,3.58801 -5.830063,2.46646 Q 55.000526,452.05636 55,447.57174 l 0,-246.66376 q 0,-4.48463 2.242575,-5.60618 2.242574,-1.12155 5.830063,2.46647 z M 466.70454,316.16748 585.10323,197.76879 q 3.58802,-3.58801 5.83006,-2.46646 2.24205,1.12155 2.24258,5.60617 l 0,246.66377 q 0,4.48462 -2.24258,5.60617 -2.24257,1.12155 -5.83006,-2.46646 L 466.70454,332.31328 q -3.58801,-3.58801 -3.58801,-8.07263 0,-4.48463 3.58801,-8.07264 z m -44.84781,60.99309 163.2465,163.24649 q 3.58802,3.58802 2.46647,5.83007 -1.12155,2.24204 -5.60618,2.24257 l -515.751698,0 q -4.484624,0 -5.606174,-2.24257 -1.12155,-2.24258 2.466464,-5.83007 L 226.31862,377.16057 q 3.58801,-3.58801 8.07264,-3.58801 4.48462,0 8.07263,3.58801 l 73.55088,73.55088 q 3.58802,3.58801 8.07264,3.58801 4.48462,0 8.07264,-3.58801 l 73.55087,-73.55088 q 3.58802,-3.58801 8.07264,-3.58801 4.48463,0 8.07264,3.58801 z"
     id="path3339"
     inkscape:connector-curvature="0"
     style="fill:#7a3510;fill-opacity:1" />
</svg>
