<svg xmlns:svg="http://www.w3.org/2000/svg" xmlns="http://www.w3.org/2000/svg" version="1.1" width="648.2" height="648.5" viewBox="0 0 648.2 648.5"><g transform="translate(55,-428.29834)"/><path d="m66.2 100 515.8 0q4.5 0 5.6 2.2 1.1 2.2-2.5 5.8l-252.9 254.3q-3.6 3.6-8.1 3.6-4.5 0-8.1-3.6L63.1 108.1q-3.6-3.6-2.5-5.8 1.1-2.2 5.6-2.2zm-3.1 97.8 118.4 118.4q3.6 3.6 3.6 8.1 0 4.5-3.6 8.1L63.1 450.7q-3.6 3.6-5.8 2.5Q55 452.1 55 447.6l0-246.7q0-4.5 2.2-5.6 2.2-1.1 5.8 2.5zM466.7 316.2 585.1 197.8q3.6-3.6 5.8-2.5 2.2 1.1 2.2 5.6l0 246.7q0 4.5-2.2 5.6-2.2 1.1-5.8-2.5L466.7 332.3q-3.6-3.6-3.6-8.1 0-4.5 3.6-8.1zm-44.8 61 163.2 163.2q3.6 3.6 2.5 5.8-1.1 2.2-5.6 2.2l-515.8 0q-4.5 0-5.6-2.2-1.1-2.2 2.5-5.8L226.3 377.2q3.6-3.6 8.1-3.6 4.5 0 8.1 3.6l73.6 73.6q3.6 3.6 8.1 3.6 4.5 0 8.1-3.6l73.6-73.6q3.6-3.6 8.1-3.6 4.5 0 8.1 3.6z" fill="#7a3510"/></svg>